<svg id="Layer_1" data-name="Layer 1" xmlns="http://www.w3.org/2000/svg" width="411.16" height="350.17"><defs><clipPath id="clip-path" transform="translate(-477.79 -209)"><rect class="cls-1" x="488.1" y="218.67" width="143.92" height="312.07" rx="15.91" ry="15.91"/></clipPath><clipPath id="clip-path-2" transform="translate(-477.79 -209)"><rect class="cls-1" x="734.72" y="218.67" width="143.92" height="312.07" rx="15.91" ry="15.91"/></clipPath><style>.cls-1,.cls-34,.cls-37,.cls-38,.cls-40,.cls-41,.cls-45,.cls-50{fill:none}.cls-2{fill:#e6e6e6}.cls-3{fill:#e7e7e7}.cls-4{fill:#e8e8e8}.cls-5{fill:#e9e9e9}.cls-6{fill:#eaeaea}.cls-7{fill:#ebebeb}.cls-8{fill:#ececec}.cls-9{fill:#ededed}.cls-10{fill:#eee}.cls-11{fill:#efefef}.cls-12{fill:#f0f0f0}.cls-13{fill:#f1f1f1}.cls-14{fill:#f2f2f2}.cls-15{fill:#f3f3f3}.cls-16{fill:#f4f4f4}.cls-17{fill:#f5f5f5}.cls-18{fill:#f6f6f6}.cls-19{fill:#f7f7f7}.cls-20{fill:#f8f8f8}.cls-21{fill:#f9f9f9}.cls-22{fill:#fafafa}.cls-23{fill:#fbfbfb}.cls-24{fill:#fcfcfc}.cls-25{fill:#fdfdfd}.cls-26{fill:#fefefe}.cls-27{fill:#fff}.cls-30{fill:#d1d3d4}.cls-34,.cls-37,.cls-38,.cls-40,.cls-41,.cls-45,.cls-50{stroke-miterlimit:10}.cls-34{stroke-width:.61px}.cls-32{fill:#8347ad}.cls-34{stroke:#f2f2f2}.cls-37,.cls-38,.cls-40{stroke:#d2d3d4}.cls-37,.cls-38,.cls-50{stroke-linecap:round}.cls-37,.cls-38{stroke-width:.81px}.cls-38{stroke-dasharray:.31 1.88}.cls-39{fill:#ff595a}.cls-40{stroke-width:.47px}.cls-41,.cls-50{stroke:#fff}.cls-41,.cls-45{stroke-width:.62px}.cls-45{stroke:#8347ad}.cls-46{fill:#bcbec0}.cls-50{stroke-width:.5px}.cls-53{fill:#d44c3d}</style></defs><rect class="cls-2" width="164.54" height="331.42" rx="25.53" ry="25.53"/><rect class="cls-3" x=".13" y=".12" width="164.3" height="331.18" rx="25.41" ry="25.41"/><rect class="cls-4" x=".25" y=".24" width="164.06" height="330.94" rx="25.29" ry="25.29"/><rect class="cls-5" x=".37" y=".36" width="163.81" height="330.7" rx="25.16" ry="25.16"/><rect class="cls-6" x=".49" y=".48" width="163.57" height="330.46" rx="25.04" ry="25.04"/><rect class="cls-7" x=".61" y=".61" width="163.33" height="330.21" rx="24.92" ry="24.92"/><rect class="cls-8" x=".73" y=".73" width="163.09" height="329.97" rx="24.8" ry="24.8"/><rect class="cls-9" x=".85" y=".85" width="162.84" height="329.73" rx="24.68" ry="24.68"/><rect class="cls-10" x=".97" y=".97" width="162.6" height="329.49" rx="24.56" ry="24.56"/><rect class="cls-11" x="1.09" y="1.09" width="162.36" height="329.25" rx="24.44" ry="24.44"/><rect class="cls-12" x="1.21" y="1.21" width="162.12" height="329" rx="24.32" ry="24.32"/><rect class="cls-13" x="1.34" y="1.33" width="161.88" height="328.76" rx="24.2" ry="24.2"/><rect class="cls-14" x="1.46" y="1.45" width="161.63" height="328.52" rx="24.07" ry="24.07"/><rect class="cls-15" x="1.58" y="1.57" width="161.39" height="328.28" rx="23.95" ry="23.95"/><rect class="cls-15" x="1.7" y="1.7" width="161.15" height="328.03" rx="23.83" ry="23.83"/><rect class="cls-16" x="1.82" y="1.82" width="160.91" height="327.79" rx="23.71" ry="23.71"/><rect class="cls-17" x="1.94" y="1.94" width="160.67" height="327.55" rx="23.59" ry="23.59"/><rect class="cls-18" x="2.06" y="2.06" width="160.42" height="327.31" rx="23.47" ry="23.47"/><rect class="cls-19" x="2.18" y="2.18" width="160.18" height="327.07" rx="23.35" ry="23.35"/><rect class="cls-20" x="2.3" y="2.3" width="159.94" height="326.82" rx="23.23" ry="23.23"/><rect class="cls-21" x="2.43" y="2.42" width="159.7" height="326.58" rx="23.11" ry="23.11"/><rect class="cls-22" x="2.55" y="2.54" width="159.45" height="326.34" rx="22.98" ry="22.98"/><rect class="cls-23" x="2.67" y="2.66" width="159.21" height="326.1" rx="22.86" ry="22.86"/><rect class="cls-24" x="2.79" y="2.78" width="158.97" height="325.85" rx="22.74" ry="22.74"/><rect class="cls-25" x="2.91" y="2.91" width="158.73" height="325.61" rx="22.62" ry="22.62"/><rect class="cls-26" x="3.03" y="3.03" width="158.49" height="325.37" rx="22.5" ry="22.5"/><rect class="cls-27" x="3.15" y="3.15" width="158.24" height="325.13" rx="22.38" ry="22.38"/><rect class="cls-27" x="10.31" y="9.68" width="143.92" height="312.07" rx="15.91" ry="15.91"/><g clip-path="url(#clip-path)"><path class="cls-27" d="M488.1 532.6h143.81v-305H488.1z" transform="translate(-477.79 -209)"/><path fill="#ff404a" d="M10.31 7h143.92v59.42H10.31z"/><path class="cls-27" d="M494.91 251.62l3.74 3.73a.49.49 0 010 .69.49.49 0 01-.69 0l-3.69-3.71a.5.5 0 010-.68.49.49 0 01.64-.03z" transform="translate(-477.79 -209)"/><path class="cls-27" d="M498 247.73l-3.72 3.73a.51.51 0 000 .69.49.49 0 00.69 0l3.74-3.74a.48.48 0 000-.68.49.49 0 00-.69 0z" transform="translate(-477.79 -209)"/><rect class="cls-27" x="101.66" y="39.56" width="6.67" height="6.67" rx="3.33" ry="3.33"/><rect class="cls-27" x="112.83" y="39.56" width="6.67" height="6.67" rx="3.33" ry="3.33"/><rect class="cls-27" x="124.01" y="39.56" width="6.67" height="6.67" rx="3.33" ry="3.33"/><circle class="cls-27" cx="146.28" cy="42.9" r="1.42"/><circle class="cls-27" cx="142.71" cy="42.9" r="1.42"/><circle class="cls-27" cx="139.14" cy="42.9" r="1.42"/><circle class="cls-30" cx="146.28" cy="103.74" r="1.42"/><circle class="cls-30" cx="142.71" cy="103.74" r="1.42"/><circle class="cls-30" cx="139.14" cy="103.74" r="1.42"/><path stroke-width=".61" stroke-miterlimit="10" stroke="#e6e7e8" fill="none" d="M10.31 94.01h143.81"/><rect class="cls-30" x="109.74" y="102.31" width="20.94" height="4.4" rx="2.2" ry="2.2"/><circle class="cls-32" cx="22.96" cy="108.97" r="6.66"/><path class="cls-30" d="M497.42 280.89h89.87a3.33 3.33 0 013.33 3.33 3.33 3.33 0 01-3.33 3.33h-89.87a3.33 3.33 0 01-3.33-3.33 3.33 3.33 0 013.33-3.33zM497.42 290H554a3.33 3.33 0 013.33 3.33 3.33 3.33 0 01-3.33 3.37h-56.58a3.33 3.33 0 01-3.33-3.33 3.33 3.33 0 013.33-3.37zM513.11 321h12.71a2.42 2.42 0 012.42 2.42 2.42 2.42 0 01-2.42 2.42h-12.71a2.42 2.42 0 01-2.42-2.42 2.42 2.42 0 012.42-2.42z" transform="translate(-477.79 -209)"/><rect class="cls-30" x="32.9" y="103.52" width="34.43" height="4.84" rx="2.42" ry="2.42"/><rect class="cls-32" x="16.3" y="131.52" width="131.41" height="52.6" rx="4.5" ry="4.5"/><path class="cls-30" d="M497.71 400.64h124.17a3.62 3.62 0 013.62 3.62 3.62 3.62 0 01-3.62 3.62H497.71a3.62 3.62 0 01-3.62-3.62 3.62 3.62 0 013.62-3.62zM497.71 410.8h124.17a3.62 3.62 0 013.62 3.62 3.62 3.62 0 01-3.62 3.62H497.71a3.62 3.62 0 01-3.62-3.62 3.62 3.62 0 013.62-3.62zM497.71 421h124.17a3.62 3.62 0 013.62 3.62 3.62 3.62 0 01-3.62 3.62H497.71a3.62 3.62 0 01-3.62-3.62 3.62 3.62 0 013.62-3.62zM497.71 431.14h69.71a3.62 3.62 0 013.62 3.62 3.62 3.62 0 01-3.62 3.62h-69.71a3.62 3.62 0 01-3.62-3.62 3.62 3.62 0 013.62-3.62z" transform="translate(-477.79 -209)"/><rect class="cls-32" x="16.3" y="238.34" width="131.41" height="22.11" rx="11.05" ry="11.05"/><text transform="translate(62.52 252.46)" style="isolation:isolate" font-family="OpenSans-Bold,Open Sans" font-weight="700" font-size="9.39" fill="#fff">Buy now</text><rect class="cls-30" x="16.3" y="267.53" width="18.72" height="18.72" rx="4.83" ry="4.83"/><rect class="cls-30" x="41.08" y="267.53" width="18.72" height="18.72" rx="4.83" ry="4.83"/><rect class="cls-30" x="65.87" y="267.53" width="18.72" height="18.72" rx="4.83" ry="4.83"/><rect class="cls-30" x="90.65" y="267.53" width="18.72" height="18.72" rx="4.83" ry="4.83"/></g><rect class="cls-34" x="10.31" y="9.68" width="143.92" height="312.07" rx="15.91" ry="15.91"/><g opacity=".55"><path class="cls-27" d="M572.75 386.72h-.1l-4.84-.8a.58.58 0 01-.37-.24.55.55 0 01-.1-.43 3.39 3.39 0 00-6.68-1.11.58.58 0 01-.66.48l-4.84-.8a.59.59 0 01-.47-.67l1.25-7.56a.57.57 0 01.65-.47.58.58 0 01.48.66l-1.16 7 3.73.62a4.54 4.54 0 018-1.34 4.47 4.47 0 01.85 2.81l4.3.72a.58.58 0 01-.09 1.15zM573.58 381.72h-.1a.58.58 0 01-.48-.66l4.27-25.46-3.73-.62a4.55 4.55 0 01-5.1 3.17 4.5 4.5 0 01-3-1.83 4.64 4.64 0 01-.85-2.81l-3.82-.64a.58.58 0 01.19-1.14l4.36.72a.58.58 0 01.48.66 3.38 3.38 0 106.67 1.11.58.58 0 01.66-.48l4.84.8a.59.59 0 01.48.67l-4.32 26a.59.59 0 01-.55.51z" transform="translate(-477.79 -209)"/><path class="cls-27" d="M547.57 381.72a.58.58 0 01-.57-.48l-4.44-25.75a.58.58 0 011.15-.2l4.34 25.18 3.72-.64a4.54 4.54 0 018.88-1.53l3.73-.64-5.11-29.84-3.73.64a4.54 4.54 0 01-8.88 1.53l-4.3.74a.57.57 0 01-.67-.45.59.59 0 01.47-.67l4.84-.83a.57.57 0 01.67.45 3.38 3.38 0 006.67-1.15.54.54 0 01.09-.43.6.6 0 01.38-.24l4.83-.83a.57.57 0 01.67.45l5.34 31a.57.57 0 01-.45.67l-4.83.83a.57.57 0 01-.67-.45 3.39 3.39 0 00-6.1-1.38 3.34 3.34 0 00-.57 2.53.6.6 0 01-.1.43.58.58 0 01-.37.24l-4.84.83z" transform="translate(-477.79 -209)"/></g><g><rect class="cls-2" x="246.62" width="164.54" height="331.42" rx="25.53" ry="25.53"/><rect class="cls-3" x="246.74" y=".12" width="164.3" height="331.18" rx="25.41" ry="25.41"/><rect class="cls-4" x="246.86" y=".24" width="164.06" height="330.94" rx="25.29" ry="25.29"/><rect class="cls-5" x="246.98" y=".36" width="163.81" height="330.7" rx="25.16" ry="25.16"/><rect class="cls-6" x="247.1" y=".48" width="163.57" height="330.46" rx="25.04" ry="25.04"/><rect class="cls-7" x="247.22" y=".61" width="163.33" height="330.21" rx="24.92" ry="24.92"/><rect class="cls-8" x="247.34" y=".73" width="163.09" height="329.97" rx="24.8" ry="24.8"/><rect class="cls-9" x="247.47" y=".85" width="162.84" height="329.73" rx="24.68" ry="24.68"/><rect class="cls-10" x="247.59" y=".97" width="162.6" height="329.49" rx="24.56" ry="24.56"/><rect class="cls-11" x="247.71" y="1.09" width="162.36" height="329.25" rx="24.44" ry="24.44"/><rect class="cls-12" x="247.83" y="1.21" width="162.12" height="329" rx="24.32" ry="24.32"/><rect class="cls-13" x="247.95" y="1.33" width="161.88" height="328.76" rx="24.2" ry="24.2"/><rect class="cls-14" x="248.07" y="1.45" width="161.63" height="328.52" rx="24.07" ry="24.07"/><rect class="cls-15" x="248.19" y="1.57" width="161.39" height="328.28" rx="23.95" ry="23.95"/><rect class="cls-15" x="248.31" y="1.7" width="161.15" height="328.03" rx="23.83" ry="23.83"/><rect class="cls-16" x="248.43" y="1.82" width="160.91" height="327.79" rx="23.71" ry="23.71"/><rect class="cls-17" x="248.56" y="1.94" width="160.67" height="327.55" rx="23.59" ry="23.59"/><rect class="cls-18" x="248.68" y="2.06" width="160.42" height="327.31" rx="23.47" ry="23.47"/><rect class="cls-19" x="248.8" y="2.18" width="160.18" height="327.07" rx="23.35" ry="23.35"/><rect class="cls-20" x="248.92" y="2.3" width="159.94" height="326.82" rx="23.23" ry="23.23"/><rect class="cls-21" x="249.04" y="2.42" width="159.7" height="326.58" rx="23.11" ry="23.11"/><rect class="cls-22" x="249.16" y="2.54" width="159.45" height="326.34" rx="22.98" ry="22.98"/><rect class="cls-23" x="249.28" y="2.66" width="159.21" height="326.1" rx="22.86" ry="22.86"/><rect class="cls-24" x="249.4" y="2.78" width="158.97" height="325.85" rx="22.74" ry="22.74"/><rect class="cls-25" x="249.52" y="2.91" width="158.73" height="325.61" rx="22.62" ry="22.62"/><rect class="cls-26" x="249.65" y="3.03" width="158.49" height="325.37" rx="22.5" ry="22.5"/><rect class="cls-27" x="249.77" y="3.15" width="158.24" height="325.13" rx="22.38" ry="22.38"/><rect class="cls-27" x="256.93" y="9.68" width="143.92" height="312.07" rx="15.91" ry="15.91"/><rect class="cls-34" x="256.93" y="9.68" width="143.92" height="312.07" rx="15.91" ry="15.91"/><g><g clip-path="url(#clip-path-2)"><path class="cls-27" d="M734.72 533.57h143.92v-307H734.72z" transform="translate(-477.79 -209)"/><path class="cls-37" d="M263.59 233.47h.15"/><path class="cls-38" d="M265.62 233.47h130.62"/><path class="cls-37" d="M397.18 233.47h.16M263.59 253.26h.15"/><path class="cls-38" d="M265.62 253.26h130.62"/><path class="cls-37" d="M397.18 253.26h.16"/><path class="cls-39" d="M868.83 424.68a.72.72 0 001 0l1.49-1.49a1.31 1.31 0 00-1.85-1.85l-.13.13-.13-.13a1.31 1.31 0 10-1.86 1.85z" transform="translate(-477.79 -209)"/><circle class="cls-40" cx="391.55" cy="213.51" r="4.54"/><path class="cls-32" d="M256.93 3.15h143.92v74.52H256.93z"/><path class="cls-41" d="M263.59 30.49h10.17M263.59 33.19h10.17M263.59 35.89h10.17"/><path class="cls-27" d="M866.27 244.58h-4.6l-1-5.92h-1.25v-.49h1.7l.16 1 7.1.08zm-4.1-.54h3.73l1.72-4.35-6.22-.07z" transform="translate(-477.79 -209)"/><path class="cls-27" d="M383.7 33.42h5.06v.53h-5.06z"/><circle class="cls-27" cx="385.2" cy="36.81" r=".54"/><circle class="cls-27" cx="387.68" cy="36.81" r=".54"/><text transform="translate(393.53 36.22)" style="isolation:isolate" font-size="6.76" font-family="OpenSans-Bold,Open Sans" font-weight="700" fill="#fff">1</text><path fill="#00b6a2" d="M256.93 64.03h143.92v13.64H256.93z"/><path class="cls-27" d="M747 256h122.54a5.59 5.59 0 015.59 5.59 5.59 5.59 0 01-5.59 5.59H747a5.59 5.59 0 01-5.59-5.59A5.59 5.59 0 01747 256z" transform="translate(-477.79 -209)"/><path fill="#f1f2f2" d="M256.93 64.3h143.92v104.36H256.93z"/><path class="cls-27" d="M779.22 366.22h55a3.12 3.12 0 013.12 3.12 3.12 3.12 0 01-3.12 3.12h-55a3.12 3.12 0 01-3.12-3.12 3.12 3.12 0 013.12-3.12z" transform="translate(-477.79 -209)"/><circle class="cls-32" cx="305.71" cy="160.33" r="1.6"/><circle class="cls-45" cx="312.34" cy="160.33" r="1.6"/><circle class="cls-45" cx="318.97" cy="160.33" r="1.6"/><circle class="cls-45" cx="325.6" cy="160.33" r="1.6"/><circle class="cls-45" cx="332.23" cy="160.33" r="1.6"/><circle class="cls-45" cx="338.87" cy="160.33" r="1.6"/><circle class="cls-45" cx="345.5" cy="160.33" r="1.6"/><circle class="cls-45" cx="352.13" cy="160.33" r="1.6"/><rect class="cls-46" x="263.59" y="178.54" width="24.96" height="5.83" rx="2.91" ry="2.91"/><rect class="cls-46" x="263.59" y="197.77" width="55.24" height="5.83" rx="2.91" ry="2.91"/><rect class="cls-46" x="263.59" y="259.39" width="55.24" height="5.83" rx="2.91" ry="2.91"/><rect class="cls-46" x="263.59" y="188.16" width="83.37" height="5.83" rx="2.91" ry="2.91"/><g><path class="cls-39" d="M762.21 454.53a.7.7 0 001 0l1.49-1.48a1.29 1.29 0 000-1.82 1.31 1.31 0 00-1.85 0l-.13.13-.13-.13a1.31 1.31 0 00-1.86 1.85z" transform="translate(-477.79 -209)"/><circle class="cls-40" cx="284.93" cy="243.36" r="4.54"/><rect class="cls-46" x="294.02" y="240.45" width="83.37" height="5.83" rx="2.91" ry="2.91"/></g><path d="M267.62 209.48h21.05a4 4 0 014 4h0a4 4 0 01-4 4h-21.05a4 4 0 01-4-4h0a4 4 0 014-4z" stroke-width=".2" stroke="#d2d3d4" stroke-miterlimit="10" fill="none"/><path class="cls-32" d="M777.72 418.48h76.38a4 4 0 014 4 4 4 0 01-4 4h-76.38a4 4 0 01-4-4 4 4 0 014-4z" transform="translate(-477.79 -209)"/><g><path class="cls-46" d="M391.87 259.99h.4v4.63h-.4z"/><path class="cls-46" d="M389.76 262.1h4.63v.4h-4.63z"/></g><g><path class="cls-37" d="M263.59 270.51h.15"/><path class="cls-38" d="M265.62 270.51h130.62"/><path class="cls-37" d="M397.18 270.51h.16"/></g><rect class="cls-46" x="263.59" y="276.64" width="55.24" height="5.83" rx="2.91" ry="2.91"/><g><path class="cls-46" d="M391.87 277.24h.4v4.63h-.4z"/><path class="cls-46" d="M389.76 279.35h4.63v.4h-4.63z"/></g><g><path class="cls-37" d="M263.59 287.77h.15"/><path class="cls-38" d="M265.62 287.77h130.62"/><path class="cls-37" d="M397.18 287.77h.16"/></g><rect class="cls-46" x="263.59" y="293.89" width="55.24" height="5.83" rx="2.91" ry="2.91"/><g><path class="cls-46" d="M391.87 294.49h.4v4.63h-.4z"/><path class="cls-46" d="M389.76 296.61h4.63v.4h-4.63z"/></g></g><text transform="translate(346.96 35.58)" style="isolation:isolate" font-size="6.13" font-family="OpenSans-Bold,Open Sans" font-weight="700" fill="#fff">Hello Jane</text></g><g><path class="cls-32" d="M823.36 351.79h-.09l-6.36-1.06a.75.75 0 01-.5-.31.82.82 0 01-.13-.57 4.38 4.38 0 00-.77-3.31 4.44 4.44 0 00-8 1.86.75.75 0 01-.86.62l-6.38-1.02a.76.76 0 01-.63-.88l1.63-9.91a.77.77 0 111.54.08.86.86 0 010 .17l-1.51 9.16 4.91.81a6 6 0 0111.7 1.94l5.66.94a.78.78 0 01.58.92.77.77 0 01-.71.6zM824.45 345.17h-.13a.75.75 0 01-.62-.86l5.57-33.44-4.91-.81a6 6 0 01-11.69-1.94l-5-.84a.76.76 0 01-.62-.88.75.75 0 01.86-.62l5.73 1a.76.76 0 01.63.87 4.45 4.45 0 003.66 5.12 4.46 4.46 0 005.12-3.66.76.76 0 01.88-.63l6.36 1.06a.76.76 0 01.63.87l-5.68 34.22a.75.75 0 01-.79.54z" transform="translate(-477.79 -209)"/><path class="cls-32" d="M790.27 345.17a.75.75 0 01-.75-.63l-5.84-33.87a.76.76 0 111.5-.26l5.71 33.12 4.9-.84a6 6 0 0111.69-2l4.9-.84-6.77-39.25-4.9.85a6 6 0 01-11.68 2l-5.66 1a.77.77 0 01-.25-1.51l6.35-1.09a.75.75 0 01.88.6 4.45 4.45 0 008.79-1.38.51.51 0 000-.13.82.82 0 01.13-.57.8.8 0 01.5-.32l6.33-1.05a.78.78 0 01.89.62l7 40.75a.77.77 0 01-.62.88l-6.36 1.1a.77.77 0 01-.88-.62 4.44 4.44 0 10-8.75 1.52.77.77 0 01-.13.57.8.8 0 01-.49.31l-6.38 1.07z" transform="translate(-477.79 -209)"/></g></g><g><circle cx="205.58" cy="171.98" r="23.72" fill="#05ce7c"/><path class="cls-27" d="M684.91 373.56a1.35 1.35 0 000 1.88l4.05 4h-14.39a1.33 1.33 0 100 2.66H689l-4.37 4.38a1.33 1.33 0 001.88 1.88l6.65-6.64v-.09a1.18 1.18 0 00.23-.35 1.24 1.24 0 000-1 1.38 1.38 0 00-.23-.36v-.08l-6.31-6.31a1.34 1.34 0 00-1.94.03z" transform="translate(-477.79 -209)"/></g><g><circle class="cls-32" cx="389.9" cy="75.88" r="5.25"/><path class="cls-50" d="M389.9 73.29v5.19M387.31 75.88h5.19"/></g><g><path d="M106.57 312.64v25.82a11.39 11.39 0 01-11.36 11.38H69.37a11.39 11.39 0 01-11.39-11.38v-25.82a11.39 11.39 0 0111.39-11.38h25.84a11.39 11.39 0 0111.36 11.38z" stroke-width=".66" stroke="#f2f2f2" stroke-miterlimit="10" fill="#fff"/><path class="cls-14" d="M575.78 547.38h-31.44a2.24 2.24 0 01-2.26-2.22V523.4a2.26 2.26 0 012.26-2.26h31.44a2.26 2.26 0 012.22 2.26v21.77a2.26 2.26 0 01-2.26 2.26z" transform="translate(-477.79 -209)"/><path d="M546.57 547.38l13.43-9.85.08-.57-13.85-10v19.89z" transform="translate(-477.79 -209)" style="isolation:isolate" opacity=".1" fill="#221f1f"/><path class="cls-53" d="M544.34 547.38a2.22 2.22 0 01-2.26-2.18v-21.83c0-1.26 1-1.49 2.26-1.49s2.25.26 2.25 1.49v24z" transform="translate(-477.79 -209)"/><path class="cls-53" d="M544.34 522.23c1.6 0 1.91.48 1.91 1.14v23.69h-1.91a1.92 1.92 0 01-1.92-1.9v-21.79c0-.69.32-1.14 1.92-1.14zm0-.32c-1.26 0-2.26.26-2.26 1.46v21.8a2.23 2.23 0 002.2 2.26h2.31v-24c0-1.23-1-1.46-2.25-1.46zM575.78 522.23c1.46 0 1.91.28 1.91 1.08v21.86a1.9 1.9 0 01-1.89 1.91h-1.93v-23.77c0-.83.45-1.08 1.91-1.08zm0-.32c-1.26 0-2.26.17-2.26 1.4v24.1h2.26a2.25 2.25 0 002.26-2.24v-21.89c-.04-1.22-1.04-1.37-2.26-1.37z" transform="translate(-477.79 -209)"/><path class="cls-53" d="M575.78 547.38h-2.26v-24.07c0-1.25 1-1.4 2.26-1.4s2.26.17 2.26 1.4v21.86a2.25 2.25 0 01-2.26 2.2z" transform="translate(-477.79 -209)"/><path d="M566.16 547.38l-23.89-23.07 1.26.52 16.62 12L578 523.72v21.45a2.24 2.24 0 01-2.25 2.23h-9.63z" transform="translate(-477.79 -209)" style="isolation:isolate" opacity=".08" fill="#221f1f"/><path class="cls-53" d="M560 537.56l-17-12.31a2.28 2.28 0 01-.54-3.17 2.32 2.32 0 013.2-.48L560 532l14.43-10.56a2.25 2.25 0 012.82 3.5 1.49 1.49 0 01-.2.15L560 537.56z" transform="translate(-477.79 -209)"/><path class="cls-53" d="M575.78 521.37a1.92 1.92 0 011.94 1.9 1.89 1.89 0 01-.8 1.58L560 537.17 543.27 525a2 2 0 01-.48-2.69 1.89 1.89 0 011.6-.83 1.8 1.8 0 011.14.38l14.31 10.39.2.12.2-.12 14.39-10.57a2.41 2.41 0 011.17-.31zm0-.34a2 2 0 00-1.31.43L560 532l-14.36-10.45a2.3 2.3 0 00-1.34-.43 2.38 2.38 0 00-1.86.94 2.3 2.3 0 00.57 3.15l17 12.33 17.07-12.45a2.27 2.27 0 00.52-3.14 2.33 2.33 0 00-1.83-.94z" transform="translate(-477.79 -209)"/></g><g><path class="cls-32" d="M831 521.64v25.82a11.39 11.39 0 01-11.39 11.38h-25.84a11.39 11.39 0 01-11.39-11.38v-25.82a11.39 11.39 0 0111.39-11.38h25.81A11.39 11.39 0 01831 521.64z" transform="translate(-477.79 -209)"/><path class="cls-27" d="M815.44 550.34h-.06l-3.35-.56a.35.35 0 01-.26-.16.45.45 0 01-.07-.3 2.29 2.29 0 00-.4-1.74 2.34 2.34 0 00-4.21 1 .4.4 0 01-.46.33l-3.35-.56a.4.4 0 01-.33-.46l.87-5.22a.4.4 0 01.46-.33.39.39 0 01.33.44l-.8 4.83 2.58.42a3.14 3.14 0 016.15 1l3 .5a.39.39 0 01.33.44.4.4 0 01-.43.37zM816 546.89a.39.39 0 01-.33-.44l2.92-17.58-2.58-.43a3.14 3.14 0 01-6.15-1l-2.64-.44a.4.4 0 01-.33-.46.41.41 0 01.43-.35l3 .5a.4.4 0 01.33.46 2.29 2.29 0 00.4 1.74 2.34 2.34 0 004.21-1 .4.4 0 01.46-.33l3.35.55a.4.4 0 01.33.46l-3 18a.4.4 0 01-.4.32z" transform="translate(-477.79 -209)"/><path class="cls-27" d="M798 546.89a.4.4 0 01-.39-.33l-3.07-17.8a.4.4 0 01.31-.46.4.4 0 01.46.32l3 17.41 2.58-.45a3.16 3.16 0 012.57-3.23 3.16 3.16 0 012.35.53 3.22 3.22 0 011.19 1.64l2.57-.44-3.55-20.62-2.58.44a3.14 3.14 0 01-6.14 1.06l-3 .51a.4.4 0 01-.46-.33.4.4 0 01.32-.46l3.35-.57a.4.4 0 01.46.31 2.34 2.34 0 004.64-.63v-.16a.35.35 0 01.07-.3.39.39 0 01.25-.17l3.35-.57a.4.4 0 01.46.33l3.69 21.41a.4.4 0 01-.33.46l-3.34.58a.4.4 0 01-.46-.33 2.34 2.34 0 10-4.61.8.38.38 0 01-.07.29.39.39 0 01-.26.17l-3.34.57z" transform="translate(-477.79 -209)"/></g></svg>