<svg id="Layer_1" data-name="Layer 1" xmlns="http://www.w3.org/2000/svg" width="253.19" height="548.35"><defs><linearGradient id="linear-gradient" x1="125.99" y1="509.35" x2="125.99" y2="525.01" gradientTransform="matrix(1 0 0 -1 0 690)" gradientUnits="userSpaceOnUse"><stop offset="0" stop-color="#fff" stop-opacity="0"/><stop offset="1"/></linearGradient><clipPath id="clip-path"><rect x="1.35" y="2.54" width="250.98" height="544.2" rx="27.74" ry="27.74" fill="none"/></clipPath><style>.cls-6{fill:none}.cls-4{fill:#5a5a5a}.cls-5{fill:#fff}.cls-6{stroke:#5a5a5a;stroke-linecap:round;stroke-linejoin:round;stroke-width:1.06px}.cls-7{fill:#323e48}.cls-9{fill:#939598}.cls-12{fill:#662d91}.cls-15{opacity:.55}.cls-19{fill:#00a99d}</style></defs><g clip-path="url(#clip-path)"><path fill="#f2f2f2" d="M.99 0h251.22v84.73H.99z"/><circle class="cls-4" cx="240.53" cy="65.99" r="1.52"/><circle class="cls-4" cx="240.53" cy="61.03" r="1.52"/><circle class="cls-4" cx="240.53" cy="56.06" r="1.52"/><path class="cls-5" d="M38.13 47.76h150.35v26.53H38.13z"/><path class="cls-6" d="M199.56 55.48h11.09v11.09h-11.09zM16.89 61.14h10.48M21.81 56.19l-4.92 4.91 4.77 4.76"/><path class="cls-7" d="M1.11 84.75h250.98v39.92H1.11z"/><rect x="13.46" y="143.08" width="106.49" height="11.31" rx="5.65" ry="5.65" fill="#e6e6e6"/><path class="cls-9" d="M19.47 163.4h181.74a6 6 0 016 6 6 6 0 01-6 6H19.47a6 6 0 01-6-6 6 6 0 016-6z"/><rect class="cls-7" x="13.46" y="186.64" width="55.27" height="6.01" rx="3" ry="3"/><rect x="13.46" y="195.12" width="61.63" height="6.01" rx="3" ry="3" fill="#a9a9a9"/><path fill="#414042" d="M1.2 220.69h251.22v122.37H1.2z"/><path class="cls-12" d="M39.06 419.63h175.49v73.66H39.06z"/><path class="cls-9" d="M18.41 357h216a5 5 0 014.95 4.95 5 5 0 01-4.95 4.94h-216a5 5 0 01-4.95-4.94 5 5 0 014.95-4.95zM18.41 375.41h208.53a5 5 0 014.95 4.95 5 5 0 01-4.95 4.94H18.41a5 5 0 01-4.95-4.94 5 5 0 014.95-4.95zM18.41 507.07h216a5 5 0 014.95 4.95 5 5 0 01-4.95 4.94h-216a5 5 0 01-4.95-4.96 5 5 0 014.95-4.93zM18.41 525.5h208.53a5 5 0 014.95 5 5 5 0 01-4.95 4.94H18.41a5 5 0 01-4.95-4.94 5 5 0 014.95-5zM18.41 394.86h189.45a5 5 0 014.95 4.94 5 5 0 01-4.95 4.95H18.41a5 5 0 01-4.95-4.95 5 5 0 014.95-4.94z"/></g><rect class="cls-5" x="53.24" y="100.06" width="21.44" height="10.21" rx="5.1" ry="5.1"/><rect class="cls-5" x="89.99" y="100.06" width="21.44" height="10.21" rx="5.1" ry="5.1"/><rect class="cls-5" x="214.55" y="100.06" width="21.44" height="10.21" rx="5.1" ry="5.1"/><rect class="cls-5" x="126.75" y="100.06" width="72.49" height="10.21" rx="5.1" ry="5.1"/><circle cx="19.54" cy="105.17" r="9.19" stroke-miterlimit="10" stroke="#fff" stroke-width="1.02" fill="none"/><circle class="cls-5" cx="19.54" cy="105.17" r="5.1"/><rect x="1.35" y="2.54" width="251.31" height="544.93" rx="27.78" ry="27.78" stroke="#f2f2f2" stroke-miterlimit="10" stroke-width="1.06" fill="none"/><g class="cls-15"><path class="cls-5" d="M144.79 484.57h-.14l-6.91-1.15a.83.83 0 01-.68-.95 4.81 4.81 0 10-9.5-1.57.82.82 0 01-.94.68h-.06l-6.82-1.14a.83.83 0 01-.68-.95l1.79-10.75a.82.82 0 01.94-.68.83.83 0 01.68.95l-1.65 9.94 5.31.88a6.46 6.46 0 0112.65 2.1l6.12 1a.83.83 0 01-.13 1.64zM146 477.47h-.14a.82.82 0 01-.68-.94l6-36.2-5.31-.88a6.47 6.47 0 01-12.65-2.1l-5.43-.9a.83.83 0 01-.68-.95.82.82 0 01.92-.69l6.2 1a.82.82 0 01.67.95 4.81 4.81 0 109.5 1.57.83.83 0 01.95-.69h.05l6.88 1.15a.82.82 0 01.68.94l-6.14 37a.83.83 0 01-.82.74z"/><path class="cls-5" d="M109 477.46a.83.83 0 01-.81-.68l-6.31-36.63a.82.82 0 111.62-.28l6.18 35.82 5.3-.92a6.46 6.46 0 0112.63-2.17l5.31-.92-7.32-42.42-5.3.91a6.47 6.47 0 01-10.18 5.57 6.5 6.5 0 01-2.46-3.39l-6.11 1a.82.82 0 11-.28-1.62l6.87-1.19a.83.83 0 011 .63 4.8 4.8 0 005.53 4 4.79 4.79 0 004-5.55.9.9 0 01.14-.62.8.8 0 01.54-.33l6.87-1.19a.83.83 0 011 .63l7.51 44.06a.83.83 0 01-.63 1l-6.88 1.18a.8.8 0 01-1-.59.19.19 0 010-.08 4.81 4.81 0 00-9.49 1.63.8.8 0 01-.59 1h-.08l-6.87 1.18z"/></g><rect x="1.35" y="2.54" width="251.31" height="544.93" rx="27.78" ry="27.78" style="isolation:isolate" opacity=".55"/><path style="isolation:isolate" opacity=".35" fill="url(#linear-gradient)" d="M0 170.21h251.98v20.02H0z"/><path class="cls-5" d="M1.56 169.78h250.52V84.05H1.56z"/><text transform="translate(73.14 118.85)" style="isolation:isolate" font-size="13.24" fill="#76777a" font-family="OpenSans-Bold,Open Sans" font-weight="700">App</text><path class="cls-19" d="M77.32 128.53l1.22 3.77h3.96l-3.2 2.32 1.22 3.77-3.2-2.33-3.2 2.33 1.22-3.77-3.2-2.32h3.95l1.23-3.77zM90.78 128.53L92 132.3h3.96l-3.2 2.32 1.22 3.77-3.2-2.33-3.2 2.33 1.22-3.77-3.2-2.32h3.96l1.22-3.77zM104.24 128.53l1.23 3.77h3.95l-3.2 2.32 1.22 3.77-3.2-2.33-3.2 2.33 1.23-3.77-3.21-2.32h3.96l1.22-3.77zM117.71 128.53l1.22 3.77h3.96l-3.2 2.32 1.22 3.77-3.2-2.33-3.2 2.33 1.22-3.77-3.2-2.32h3.95l1.23-3.77z"/><path fill="#ccc" d="M131.17 128.53l1.22 3.77h3.96l-3.2 2.32 1.22 3.77-3.2-2.33-3.2 2.33 1.22-3.77-3.2-2.32h3.96l1.22-3.77z"/><rect x="158.04" y="98.89" width="79.23" height="50.49" rx="5.22" ry="5.22" fill="#05ce7c"/><path class="cls-5" d="M174.83 128.43V118H177v10.41zM187.2 128.43H185v-4.65a2.24 2.24 0 00-.3-1.29 1.11 1.11 0 00-1-.43 1.46 1.46 0 00-1.32.61 3.85 3.85 0 00-.4 2v3.74h-2.18v-8h1.66l.3 1h.12a2.12 2.12 0 011-.87 3.28 3.28 0 011.45-.3 2.83 2.83 0 012.11.75 3.06 3.06 0 01.71 2.17zM195.36 126.07a2.18 2.18 0 01-.85 1.86 4.23 4.23 0 01-2.55.64 9.13 9.13 0 01-1.48-.11 5.86 5.86 0 01-1.15-.35v-1.79a7.39 7.39 0 001.37.47 5.42 5.42 0 001.33.2c.79 0 1.19-.23 1.19-.69a.57.57 0 00-.16-.41 2.25 2.25 0 00-.54-.37l-1-.47a7.55 7.55 0 01-1.35-.71 2 2 0 01-.62-.75 2.52 2.52 0 01-.2-1 1.88 1.88 0 01.82-1.64 4 4 0 012.34-.58 6.54 6.54 0 012.79.63l-.65 1.56c-.4-.17-.77-.31-1.12-.42a3.45 3.45 0 00-1.06-.16c-.64 0-1 .17-1 .52a.61.61 0 00.31.5 7.67 7.67 0 001.36.64 6.25 6.25 0 011.36.7 2.14 2.14 0 01.64.76 2.26 2.26 0 01.22.97zM200.74 126.84a4.54 4.54 0 001.37-.25v1.67a4.89 4.89 0 01-2 .36 2.49 2.49 0 01-1.9-.65 2.87 2.87 0 01-.59-2v-3.84h-1v-.92l1.19-.72.63-1.69h1.39v1.7h2.23v1.63h-2.23V126a.79.79 0 00.26.68 1 1 0 00.65.16zM209.17 128.43l-.42-1.08a3.17 3.17 0 01-1.12 1 3.75 3.75 0 01-1.52.26 2.45 2.45 0 01-1.8-.65 2.53 2.53 0 01-.66-1.87 2.12 2.12 0 01.88-1.87 5.13 5.13 0 012.68-.66h1.38v-.34a1.08 1.08 0 00-.93-1.21.81.81 0 00-.31 0 5.79 5.79 0 00-2.24.57l-.72-1.46a6.41 6.41 0 013-.72 3.82 3.82 0 012.45.69 2.6 2.6 0 01.86 2.13v5.3zm-.64-3.69h-.84a2.68 2.68 0 00-1.41.34 1.09 1.09 0 00-.46 1c0 .61.35.92 1 .92a1.68 1.68 0 001.21-.44 1.5 1.5 0 00.45-1.15zM215.46 128.43h-2.17v-11.08h2.17zM220.28 128.43h-2.18v-11.08h2.18z"/><path class="cls-12" d="M63 111.26v26.33a11.62 11.62 0 01-11.6 11.62H25.06a11.61 11.61 0 01-11.61-11.61v-26.34a11.61 11.61 0 0111.6-11.62H51.4A11.62 11.62 0 0163 111.26z"/><g class="cls-15"><path class="cls-5" d="M48.09 140.44H48l-3.86-.64a.47.47 0 01-.42-.5 2.68 2.68 0 00-2.19-3.09 2.7 2.7 0 00-3.1 2.22.46.46 0 01-.53.38l-3.9-.69a.44.44 0 01-.38-.51l1-6a.44.44 0 01.51-.38.46.46 0 01.38.53l-.93 5.57 3 .5a3.61 3.61 0 014.11-2.55 3.6 3.6 0 013 3.7l3.43.57a.46.46 0 01.39.52.47.47 0 01-.42.37zM48.74 136.46h-.08a.46.46 0 01-.38-.53l3.37-20.3-3-.49a3.63 3.63 0 01-7.1-1.18l-3-.51a.44.44 0 01-.38-.51.46.46 0 01.53-.38l3.47.58a.46.46 0 01.38.53 2.74 2.74 0 00.47 2 2.61 2.61 0 001.75 1.09 2.69 2.69 0 002-.46 2.73 2.73 0 001.09-1.76.49.49 0 01.18-.3.48.48 0 01.35-.08l3.86.64a.48.48 0 01.38.54l-3.44 20.75a.48.48 0 01-.45.37z"/><path class="cls-5" d="M28 136.46a.47.47 0 01-.46-.39L24 115.53a.46.46 0 01.38-.53.45.45 0 01.53.36l3.47 20.08 3-.51a3.62 3.62 0 017.08-1.23l3-.51-4.11-23.8-3 .51a3.62 3.62 0 01-7.08 1.23l-3.43.59a.48.48 0 01-.54-.38.46.46 0 01.38-.53l3.86-.67a.46.46 0 01.53.38 2.7 2.7 0 005.32-.92.46.46 0 01.08-.34.46.46 0 01.3-.19l3.85-.67a.48.48 0 01.54.38l4.26 24.71a.48.48 0 01-.38.54l-3.86.66a.45.45 0 01-.53-.36 2.7 2.7 0 10-5.34.82v.1a.46.46 0 01-.08.34.46.46 0 01-.3.19l-3.85.67z"/></g></svg>